<svg width="54" height="23" viewBox="0 0 54 23" fill="none" xmlns="http://www.w3.org/2000/svg">
<path d="M8.4093 5.1954C9.04349 4.99564 9.71995 4.8891 10.4218 4.8891C13.4941 4.8891 16.059 6.95065 16.6453 9.69141L21 8.8524C20.0022 4.19659 15.6447 0.691406 10.4218 0.691406C9.22388 0.691406 8.07671 0.875188 7 1.21612L8.4093 5.1954Z" fill="#B19730" fill-opacity="0.63"/>
<path d="M3.31707 19.6914L6 16.3977C4.80359 15.2459 4.04878 13.5642 4.04878 11.69C4.04878 9.81865 4.80359 8.13694 6 6.9879L3.31707 3.69141C1.2837 5.64922 0 8.50786 0 11.69C0 14.875 1.2837 17.7336 3.31707 19.6914Z" fill="#498CA5" fill-opacity="0.56"/>
<path d="M16.6453 12.6914C16.0562 15.7355 13.4941 18.0245 10.4246 18.0245C9.71995 18.0245 9.04067 17.9061 8.4093 17.681L7 22.111C8.07671 22.4871 9.2267 22.6914 10.4246 22.6914C15.6418 22.6914 19.9966 18.8004 21 13.6301L16.6453 12.6914Z" fill="#923525" fill-opacity="0.46"/>
<path d="M23.9672 16.5072C23.8286 16.2761 23.6438 15.907 23.5297 15.6336C22.8638 14.0331 22.8339 12.3762 23.3938 10.7869C24.0107 9.04259 25.1902 7.70972 26.7148 7.02779C28.6307 6.17397 30.7478 6.34023 32.5849 7.4702C33.7508 8.1634 34.5769 9.2342 35.2047 10.7502C35.2835 10.9447 35.3542 11.1504 35.4248 11.3279L23.9672 16.5072ZM27.7937 9.60053C26.4321 10.2064 25.731 11.5308 25.8777 13.0806L31.6391 10.5079C30.6472 9.30183 29.359 8.90169 27.7937 9.60053V9.60053ZM32.3566 15.1969C32.3539 15.1969 32.3539 15.1997 32.3539 15.1997L32.2343 15.1151C31.8892 15.6928 31.3538 16.1634 30.6771 16.4677C29.3889 17.0482 28.1959 16.8989 27.3371 16.1183L27.2583 16.2423C27.2583 16.2423 27.2583 16.2395 27.2556 16.2395L25.7935 18.5079C26.1576 18.77 26.5463 18.9898 26.9539 19.1673C28.5682 19.8633 30.2205 19.8295 31.8484 19.0968C33.0251 18.5671 33.9492 17.7611 34.5796 16.7383L32.3566 15.1969ZM39.4279 3.69141V16.2987L41.3194 17.0933L40.246 19.6914L38.1588 18.7897C37.6914 18.5783 37.3707 18.2571 37.1315 17.8936C36.9005 17.5244 36.7293 17.0144 36.7293 16.3325V3.69141H39.4279ZM44.3252 13.0891C44.3252 12.0155 44.7844 11.0517 45.5073 10.398L43.5669 8.15495C42.2516 9.36101 41.4227 11.1222 41.4227 13.0834C41.42 15.0475 42.2489 16.8115 43.5615 18.0176L45.4992 15.7745C44.779 15.118 44.3252 14.1599 44.3252 13.0891V13.0891ZM47.7711 16.665C47.3907 16.665 47.0211 16.5974 46.6786 16.479L45.7519 19.3335C46.3851 19.5533 47.0618 19.6745 47.7684 19.6745C50.8394 19.6773 53.4021 17.4174 53.9973 14.4163L51.1492 13.8133C50.8258 15.4448 49.4371 16.6678 47.7711 16.665V16.665ZM47.7793 6.50366C47.0754 6.50366 46.3987 6.62202 45.7655 6.83899L46.6841 9.69634C47.0292 9.57799 47.3961 9.51317 47.7766 9.51317C49.4452 9.51599 50.8366 10.7446 51.1519 12.379L54 11.7816C53.4157 8.77489 50.853 6.50648 47.7793 6.50366V6.50366Z" fill="white"/>
</svg>
