<svg width="49" height="33" viewBox="0 0 49 33" fill="none" xmlns="http://www.w3.org/2000/svg">
<g filter="url(#filter0_b_2503_310)">
<g filter="url(#filter1_f_2503_310)">
<path d="M15.2553 4H11.0061C9.1285 4.12436 7.59376 5.18368 7.15061 7.36819C6.91955 8.50745 6.79238 9.75867 6.6117 10.9396C5.69314 16.9445 4.87864 23.1149 4 29H37.0819C39.6394 29 41.3955 28.2429 41.87 25.3993C42.0904 24.0784 42.3016 22.5825 42.5126 21.1312C43.3348 15.4729 44.1577 9.81493 45 4H15.2553Z" fill="#822124"/>
</g>
<path d="M15.1291 13.4067C15.3022 13.2406 15.5252 12.4839 15.2705 12.1689C15.1898 12.0691 15.0548 12.0402 14.8665 12.0845C14.6919 12.1256 14.5914 12.2083 14.5232 12.3378C14.4136 12.5458 14.313 13.1736 14.4828 13.4068C14.6483 13.6338 15.0189 13.5124 15.1291 13.4067V13.4067ZM12.6652 12.1689C12.5411 13.2902 12.4014 14.3896 12.2613 15.4885C11.3616 15.5018 10.443 15.5504 9.57524 15.4604C9.73914 14.3853 9.85668 13.2455 10.0196 12.1689H9.05016C8.70317 14.9113 8.38746 17.6976 8 20.3837H8.98963C9.14481 19.0059 9.29004 17.6139 9.49447 16.3044C10.3382 16.2755 11.3495 16.225 12.1603 16.3326C11.9932 17.694 11.7912 19.0066 11.6353 20.3837H12.6249C12.943 17.6007 13.2779 14.8415 13.6751 12.1689H12.6652V12.1689ZM26.6609 14.5321C25.8909 14.0988 25.2855 14.8309 25.0048 15.5167C25.0685 15.2116 25.0947 14.8543 25.1463 14.5321H24.3788C24.1912 16.5589 23.9147 18.4618 23.6518 20.3837H24.5203C24.642 19.243 24.6946 17.7051 24.9645 16.6139C25.1803 15.7419 25.7451 14.9989 26.56 15.4042C26.5713 15.0825 26.6374 14.837 26.6609 14.5321V14.5321ZM27.1455 19.0053C27.0654 18.7171 27.0448 18.2415 27.0648 17.8798C27.1096 17.067 27.3223 16.0773 27.6505 15.6292C28.1033 15.0109 28.9974 15.1132 29.7105 15.4605C29.7325 15.1257 29.7808 14.827 29.8115 14.504C28.642 14.2379 27.5322 14.4035 26.9438 15.2636C26.3677 16.1056 25.9902 18.0408 26.257 19.2585C26.5694 20.6833 27.9704 20.7608 29.1047 20.215C29.1548 19.9286 29.1814 19.6093 29.2258 19.3148C28.6059 19.7632 27.421 19.9964 27.1455 19.0053V19.0053ZM36.9001 14.5601C36.1326 14.0256 35.4935 14.9226 35.2441 15.4604C35.3151 15.1844 35.3192 14.8149 35.3854 14.532H34.618C34.4111 16.5412 34.1617 18.4913 33.8709 20.3836H34.7595C34.765 19.608 34.8744 19.0343 34.9613 18.2738C35.147 16.6497 35.4198 14.8687 36.7791 15.4041C36.824 15.1295 36.8428 14.8179 36.9001 14.5601ZM14.2404 14.5321C14.2169 14.5368 14.2185 14.5765 14.2202 14.6164C14.0289 16.6098 13.7699 18.5092 13.4932 20.3836H14.3616C14.5703 18.3767 14.8093 16.4123 15.1088 14.532L14.2404 14.5321V14.5321ZM21.8744 14.4196C21.2469 14.487 20.7165 14.7384 20.3396 15.2917C19.8772 15.9702 19.5029 17.4703 19.6126 18.8365C19.7691 20.7855 21.5111 20.7155 22.9044 20.2431C22.9282 19.901 22.9876 19.6086 23.0256 19.2865C22.4517 19.5857 21.4551 20.0033 20.8646 19.4836C20.4189 19.0909 20.4163 18.097 20.5617 17.2329C21.4981 17.1914 22.4714 17.1993 23.4092 17.2329C23.4687 16.6205 23.6389 15.9529 23.49 15.3481C23.2936 14.5496 22.5902 14.3427 21.8744 14.4196ZM22.7024 16.5576H20.6626C20.7272 15.9044 21.1491 15.1864 21.8138 15.151C22.4394 15.1177 22.8873 15.471 22.7024 16.5576V16.5576ZM18.5826 14.5321C17.8476 14.1475 16.9518 14.6066 16.5634 15.0433C16.5648 15.0625 16.5541 15.0651 16.5427 15.0666C16.5493 15.0588 16.5565 15.0511 16.5634 15.0433C16.5633 15.0417 16.5632 15.0401 16.563 15.0385C16.5695 14.8507 16.617 14.7199 16.6235 14.5321H15.8763C15.5649 17.418 15.1956 20.2231 14.806 23H15.6744C15.8001 21.9186 15.883 20.7776 16.0582 19.7648C16.2565 20.83 17.5515 20.6265 18.0979 20.2149C19.2253 19.3655 20.095 15.3234 18.5826 14.5321V14.5321ZM17.8959 19.2865C17.4313 19.972 16.2891 19.9617 16.1995 18.8082C16.1605 18.3064 16.2947 17.7802 16.3612 17.261C16.4282 16.7355 16.4766 16.2312 16.5428 15.7699C17.0004 14.9915 18.3452 14.8975 18.4816 16.1919C18.6 17.3157 18.2807 18.7188 17.8959 19.2865V19.2865ZM40.1314 12.0001C40.057 12.9092 39.9574 13.7834 39.8285 14.6164C37.6983 13.6771 36.392 15.8604 36.4155 18.5551C36.4201 19.0763 36.4845 19.5931 36.7183 19.9617C37.1217 20.5968 38.2762 20.749 38.8592 20.2148C38.972 20.1115 39.0873 19.9234 39.1621 19.793C39.2183 19.6948 39.3074 19.4375 39.3237 19.5116C39.2929 19.797 39.2471 20.0616 39.243 20.3836H40.0306C40.1825 17.3503 40.6517 14.7596 41 12H40.1314V12.0001H40.1314ZM38.1927 19.7366C37.6081 19.7541 37.3174 19.2501 37.304 18.4144C37.2807 16.9509 37.7415 15.3249 38.6774 15.1791C39.113 15.1112 39.4285 15.2524 39.7478 15.4042C39.4546 17.0482 39.5604 19.6957 38.1927 19.7366V19.7366ZM30.7 14.5321C30.6572 14.8663 30.5916 15.1688 30.5384 15.4885C31.0509 15.3095 32.6466 14.7607 32.8004 15.7136C32.8514 16.0301 32.7634 16.3665 32.6994 16.6139C31.2565 16.4235 30.0804 16.7574 29.771 18.1893C29.5638 19.1484 29.7942 20.0922 30.2355 20.3556C31.0855 20.8629 32.1193 20.2818 32.4772 19.4836C32.4401 19.7599 32.4048 20.0392 32.4168 20.3837H33.1639C33.1719 19.3868 33.2761 18.5799 33.3861 17.6829C33.4799 16.919 33.6564 16.1627 33.6285 15.4885C33.5642 13.9445 31.7279 14.4907 30.7 14.5321V14.5321ZM32.1137 19.2584C31.6662 19.8687 30.4099 20.042 30.5384 18.5832C30.6451 17.3715 31.5922 17.1141 32.6185 17.289C32.5422 17.9518 32.4547 18.7933 32.1137 19.2584V19.2584Z" fill="white"/>
</g>
<defs>
<filter id="filter0_b_2503_310" x="0" y="0" width="49" height="33" filterUnits="userSpaceOnUse" color-interpolation-filters="sRGB">
<feFlood flood-opacity="0" result="BackgroundImageFix"/>
<feGaussianBlur in="BackgroundImageFix" stdDeviation="2"/>
<feComposite in2="SourceAlpha" operator="in" result="effect1_backgroundBlur_2503_310"/>
<feBlend mode="normal" in="SourceGraphic" in2="effect1_backgroundBlur_2503_310" result="shape"/>
</filter>
<filter id="filter1_f_2503_310" x="0" y="0" width="49" height="33" filterUnits="userSpaceOnUse" color-interpolation-filters="sRGB">
<feFlood flood-opacity="0" result="BackgroundImageFix"/>
<feBlend mode="normal" in="SourceGraphic" in2="BackgroundImageFix" result="shape"/>
<feGaussianBlur stdDeviation="2" result="effect1_foregroundBlur_2503_310"/>
</filter>
</defs>
</svg>
